<svg width="19" height="16" viewBox="0 0 19 16" fill="none" xmlns="http://www.w3.org/2000/svg">
<path fill-rule="evenodd" clip-rule="evenodd" d="M5.93158 15.8079C7.36514 15.8208 8.78692 15.548 10.1139 15.0054C11.4408 14.4627 12.6464 13.6612 13.6601 12.6474C14.6738 11.6337 15.4754 10.4282 16.0181 9.1012C16.5607 7.77424 16.8335 6.35246 16.8206 4.91889V4.39989C17.5452 3.84838 18.1757 3.18309 18.6876 2.42989C17.9921 2.73224 17.2598 2.94139 16.5096 3.05189C17.2808 2.56758 17.8655 1.83663 18.1686 0.977891C17.4193 1.39498 16.617 1.70882 15.7836 1.91089C15.4328 1.51559 15.0014 1.20003 14.5184 0.985446C14.0354 0.770864 13.5121 0.662242 12.9836 0.666891C11.971 0.68312 11.0044 1.09258 10.2884 1.80867C9.57227 2.52476 9.1628 3.49132 9.14658 4.50389C9.12173 4.7845 9.15579 5.06721 9.24658 5.33389C7.72067 5.26018 6.22813 4.86124 4.86894 4.16379C3.50975 3.46635 2.31529 2.4865 1.36558 1.28989C1.02421 1.89025 0.845324 2.56927 0.846577 3.25989C0.860265 3.88669 1.01682 4.50209 1.30431 5.05923C1.59181 5.61637 2.00266 6.10055 2.50558 6.47489C1.88217 6.46202 1.27352 6.28285 0.742577 5.95589C0.741565 6.84403 1.05249 7.70431 1.62108 8.38659C2.18967 9.06886 2.97981 9.52978 3.85358 9.68889C3.51569 9.77865 3.16539 9.81243 2.81658 9.78889C2.57025 9.80672 2.32291 9.77265 2.09058 9.68889C2.34362 10.4582 2.82819 11.1305 3.47797 11.6138C4.12776 12.0971 4.91103 12.3678 5.72058 12.3889C4.35745 13.4536 2.68017 14.0369 0.950577 14.0479C0.636197 14.0659 0.320989 14.0322 0.0175781 13.9479C1.73361 15.1942 3.80801 15.8494 5.92858 15.8149" fill="white"/>
</svg>
